<?xml version="1.0" encoding="UTF-8" standalone="no"?>
<!-- Created with Inkscape (http://www.inkscape.org/) -->
<svg xmlns:dc="http://purl.org/dc/elements/1.1/" xmlns:cc="http://creativecommons.org/ns#" xmlns:rdf="http://www.w3.org/1999/02/22-rdf-syntax-ns#" xmlns:svg="http://www.w3.org/2000/svg" xmlns="http://www.w3.org/2000/svg" xmlns:sodipodi="http://sodipodi.sourceforge.net/DTD/sodipodi-0.dtd" xmlns:inkscape="http://www.inkscape.org/namespaces/inkscape" width="240" height="130" viewBox="0 0 744.09449 1052.3622" id="svg4443" version="1.1" inkscape:version="0.91 r13725" sodipodi:docname="nutriscore-a.svg">
  <defs id="defs4445"/>
  <sodipodi:namedview id="base" pagecolor="#ffffff" bordercolor="#666666" borderopacity="1.0" inkscape:pageopacity="0.0" inkscape:pageshadow="2" inkscape:zoom="1.979899" inkscape:cx="47.938645" inkscape:cy="156.34508" inkscape:document-units="px" inkscape:current-layer="layer1" showgrid="false" inkscape:window-width="1920" inkscape:window-height="1018" inkscape:window-x="-8" inkscape:window-y="-8" inkscape:window-maximized="1"/>
  <metadata id="metadata4448">
    <rdf:RDF>
      <cc:Work rdf:about="">
        <dc:format>image/svg+xml</dc:format>
        <dc:type rdf:resource="http://purl.org/dc/dcmitype/StillImage"/>
        <dc:title/>
      </cc:Work>
    </rdf:RDF>
  </metadata>
  <g inkscape:label="Calque 1" inkscape:groupmode="layer" id="layer1">
    <path style="opacity:1;fill:#e63e11;fill-opacity:1;fill-rule:evenodd;stroke:none;stroke-width:1;stroke-linecap:round;stroke-linejoin:round;stroke-miterlimit:4;stroke-dasharray:none;stroke-dashoffset:0;stroke-opacity:1" d="m 748.69832,357.79054 363.02978,0 0,586.3148 -363.02978,0 z" id="rect5141" inkscape:connector-curvature="0"/>
    <path style="opacity:1;fill:#038141;fill-opacity:1;fill-rule:evenodd;stroke:none;stroke-width:1;stroke-linecap:round;stroke-linejoin:round;stroke-miterlimit:4;stroke-dasharray:none;stroke-dashoffset:0;stroke-opacity:1" d="m -308.51489,357.79054 363.029991,0 0,586.3148 -363.029991,0 z" id="rect5143" inkscape:connector-curvature="0"/>
    <path style="opacity:1;fill:#038141;fill-opacity:1;fill-rule:evenodd;stroke:none;stroke-width:1;stroke-linecap:round;stroke-linejoin:round;stroke-miterlimit:4;stroke-dasharray:none;stroke-dashoffset:0;stroke-opacity:1" d="m -382.38111,357.79054 90.64758,0 c 75.44988,0 136.19121,60.74128 136.19121,136.19122 l 0,313.93237 c 0,75.44988 -60.74133,136.19121 -136.19121,136.19121 l -90.64758,0 c -75.44997,0 -136.1912,-60.74133 -136.1912,-136.19121 l 0,-313.93237 c 0,-75.44994 60.74123,-136.19122 136.1912,-136.19122 z" id="rect5145" inkscape:connector-curvature="0"/>
    <path inkscape:connector-curvature="0" id="path5635" style="font-style:normal;font-variant:normal;font-weight:800;font-stretch:normal;font-size:medium;line-height:89.99999762%;font-family:Raleway;-inkscape-font-specification:'Raleway Ultra-Bold';letter-spacing:0px;word-spacing:0px;fill:#ffffff;fill-opacity:0.44606413;stroke:none;stroke-width:1px;stroke-linecap:butt;stroke-linejoin:miter;stroke-opacity:1" d="m -384.71221,514.00202 55.40668,0 96.96168,265.80222 -62.89409,0 -20.59031,-59.52472 -82.73563,0 -20.21593,59.52472 -62.89399,0 96.96159,-265.80222 z m 58.77605,163.97382 -31.07271,-93.9667 -31.82138,93.9667 62.89409,0 z"/>
    <path style="opacity:1;fill:#e63e11;fill-opacity:1;fill-rule:evenodd;stroke:none;stroke-width:1;stroke-linecap:round;stroke-linejoin:round;stroke-miterlimit:4;stroke-dasharray:none;stroke-dashoffset:0;stroke-opacity:1" d="m 1069.5561,357.79054 90.647,0 c 75.4498,0 136.1917,60.74128 136.1917,136.19122 l 0,313.93237 c 0,75.44988 -60.7419,136.19121 -136.1917,136.19121 l -90.647,0 c -75.44992,0 -136.19182,-60.74133 -136.19182,-136.19121 l 0,-313.93237 c 0,-75.44994 60.7419,-136.19122 136.19182,-136.19122 z" id="rect5151" inkscape:connector-curvature="0"/>
    <path inkscape:connector-curvature="0" id="path5631" style="font-style:normal;font-variant:normal;font-weight:800;font-stretch:normal;font-size:medium;line-height:89.99999762%;font-family:Raleway;-inkscape-font-specification:'Raleway Ultra-Bold';letter-spacing:0px;word-spacing:0px;fill:#ffffff;fill-opacity:0.44606413;stroke:none;stroke-width:1px;stroke-linecap:butt;stroke-linejoin:miter;stroke-opacity:1" d="m 1188.7073,725.89511 0,53.90913 -186.8108,0 0,-265.80222 183.441,0 0,53.90923 -122.0443,0 0,51.66293 104.8239,0 0,49.79119 -104.8239,0 0,56.52974 125.4141,0 z"/>
    <path style="opacity:1;fill:#ee8100;fill-opacity:1;fill-rule:evenodd;stroke:none;stroke-width:1;stroke-linecap:round;stroke-linejoin:round;stroke-miterlimit:4;stroke-dasharray:none;stroke-dashoffset:0;stroke-opacity:1" d="m -143.28231,357.79054 363.03009,0 0,586.3148 -363.03009,0 z" id="rect5209" inkscape:connector-curvature="0"/>
    <path style="opacity:1;fill:#ee8100;fill-opacity:1;fill-rule:evenodd;stroke:none;stroke-width:1;stroke-linecap:round;stroke-linejoin:round;stroke-miterlimit:4;stroke-dasharray:none;stroke-dashoffset:0;stroke-opacity:1" d="m 570.95706,357.79054 363.02961,0 0,586.3148 -363.02961,0 z" id="rect5211" inkscape:connector-curvature="0"/>
    <path inkscape:connector-curvature="0" id="path5552" style="font-style:normal;font-variant:normal;font-weight:800;font-stretch:normal;font-size:medium;line-height:89.99999762%;font-family:Raleway;-inkscape-font-specification:'Raleway Ultra-Bold';letter-spacing:0px;word-spacing:0px;fill:#ffffff;fill-opacity:0.44606413;stroke:none;stroke-width:1px;stroke-linecap:butt;stroke-linejoin:miter;stroke-opacity:1" d="m 636.60488,779.80424 0,-265.80222 99.2079,0 q 32.94454,0 57.65289,10.4824 24.70836,10.4823 41.18063,28.45201 16.84627,17.96981 25.08293,42.30378 8.61066,23.95958 8.61066,51.28863 0,30.32384 -9.35962,55.0323 -9.35962,24.33397 -26.95457,41.92929 -17.22094,17.22104 -41.92939,26.95467 -24.33397,9.35914 -54.28353,9.35914 l -99.2079,0 z M 805.8199,646.52884 q 0,-17.59542 -4.86681,-31.82148 -4.49243,-14.60034 -13.47729,-25.08274 -8.98485,-10.4823 -22.08785,-16.09788 -13.1029,-5.61549 -29.57517,-5.61549 l -37.81125,0 0,157.98386 37.81125,0 q 16.84666,0 29.94956,-5.98988 13.1029,-5.98997 21.71346,-16.47227 8.98486,-10.85678 13.47729,-25.08274 4.86681,-14.60043 4.86681,-31.82138 z"/>
    <path style="opacity:1;fill:#fecb02;fill-opacity:1;fill-rule:evenodd;stroke:none;stroke-width:1;stroke-linecap:round;stroke-linejoin:round;stroke-miterlimit:4;stroke-dasharray:none;stroke-dashoffset:0;stroke-opacity:1" d="m 188.25939,357.79054 383.32091,0 0,586.3148 -383.32091,0 z" id="rect5217" inkscape:connector-curvature="0"/>
    <path style="opacity:1;fill:#85bb2f;fill-opacity:1;fill-rule:evenodd;stroke:none;stroke-width:1;stroke-linecap:round;stroke-linejoin:round;stroke-miterlimit:4;stroke-dasharray:none;stroke-dashoffset:0;stroke-opacity:1" d="m 206.86519,357.79054 -363.03009,0 0,586.3148 363.03009,0 z" id="rect5219" inkscape:connector-curvature="0"/>
    <path inkscape:connector-curvature="0" id="path5547" style="font-style:normal;font-variant:normal;font-weight:800;font-stretch:normal;font-size:medium;line-height:89.99999762%;font-family:Raleway;-inkscape-font-specification:'Raleway Ultra-Bold';letter-spacing:0px;word-spacing:0px;fill:#ffffff;fill-opacity:0.44606413;stroke:none;stroke-width:1px;stroke-linecap:butt;stroke-linejoin:miter;stroke-opacity:1" d="m 258.81114,642.4108 q 0,-23.95959 8.98486,-47.54488 8.98495,-23.95968 26.20589,-42.67817 17.22104,-18.71838 41.9294,-30.32384 24.70835,-11.60545 56.15535,-11.60545 37.43696,0 64.76592,16.09788 27.70334,16.09788 41.18062,41.9293 l -47.17049,32.94454 q -4.49243,-10.48231 -11.60546,-17.22095 -6.73864,-7.11302 -14.97482,-11.23116 -8.23609,-4.49243 -16.84656,-5.98988 -8.61057,-1.87183 -16.84666,-1.87183 -17.59532,0 -30.69832,7.11303 -13.1029,7.11303 -21.71337,18.3441 -8.61047,11.23107 -12.72861,25.45712 -4.11804,14.22596 -4.11804,28.8264 0,15.7235 4.86681,30.32394 4.86681,14.60034 13.85167,25.83151 9.35924,11.23107 22.08776,17.96971 13.10299,6.36426 29.20087,6.36426 8.23609,0 16.84656,-1.87183 8.98486,-2.24621 16.84666,-6.36426 8.23608,-4.49242 14.97472,-11.23116 6.73865,-7.11293 10.85679,-17.22094 l 50.16548,29.57516 q -5.98997,14.60044 -17.96972,26.2059 -11.60545,11.60545 -26.95466,19.46716 -15.34912,7.86179 -32.57006,11.97984 -17.22104,4.11804 -33.69331,4.11804 -28.82639,0 -53.16046,-11.60546 -23.95958,-11.97984 -41.55491,-31.44699 -17.22104,-19.46726 -26.95467,-44.17561 -9.35924,-24.70836 -9.35924,-50.16548 z"/>
    <path inkscape:connector-curvature="0" id="path5544" style="font-style:normal;font-variant:normal;font-weight:800;font-stretch:normal;font-size:medium;line-height:89.99999762%;font-family:Raleway;-inkscape-font-specification:'Raleway Ultra-Bold';letter-spacing:0px;word-spacing:0px;fill:#ffffff;fill-opacity:0.44606413;stroke:none;stroke-width:1px;stroke-linecap:butt;stroke-linejoin:miter;stroke-opacity:1" d="m 154.55238,711.66905 q 0,17.22104 -7.11303,29.94955 -7.11303,12.72861 -19.46725,21.33909 -12.35413,8.23608 -28.826401,12.72851 -16.472268,4.11804 -34.816366,4.11804 l -129.531838,0 0,-265.80222 147.875936,0 q 13.851669,0 25.082739,5.98997 11.23107,5.98987 19.09287,15.7235 7.8617,9.35924 11.97984,21.71337 4.49243,11.97984 4.49243,24.70845 0,19.09277 -9.73363,35.93942 -9.35924,16.84666 -28.45211,25.45713 22.83653,6.73864 35.93952,23.95958 13.47729,17.22104 13.47729,44.17561 z M 92.032672,699.31492 q 0,-12.35422 -7.113027,-20.9647 -7.113027,-8.61056 -17.969713,-8.61056 l -70.7557917,0 0,58.02727 68.1351927,0 q 11.97984,0 19.841542,-7.8617 7.861797,-7.86179 7.861797,-20.59031 z m -95.8385317,-132.90121 0,55.0323 60.2733957,0 q 10.108011,0 17.969808,-6.73865 7.861702,-6.73864 7.861702,-20.9646 0,-13.10299 -7.113027,-20.21602 -6.738643,-7.11303 -16.472269,-7.11303 l -62.5196097,0 z"/>
    <path style="opacity:1;fill:#0039ff;fill-opacity:0.62973764;fill-rule:evenodd;stroke:#ffffff;stroke-width:61.03178787;stroke-linecap:round;stroke-linejoin:round;stroke-miterlimit:4;stroke-dasharray:none;stroke-dashoffset:0;stroke-opacity:1" d="m -372.64015,281.61584 39.3264,0 c 108.69904,0 196.20775,87.50863 196.20775,196.2077 l 0,343.94055 c 0,108.69904 -87.50871,196.20761 -196.20775,196.20761 l -39.3264,0 c -108.69905,0 -196.20766,-87.50857 -196.20766,-196.20761 l 0,-343.94055 c 0,-108.69907 87.50861,-196.2077 196.20766,-196.2077 z" id="rect5229" inkscape:connector-curvature="0"/>
    <path style="opacity:1;fill:#038141;fill-opacity:1;fill-rule:evenodd;stroke:none;stroke-width:15.94488144;stroke-linecap:round;stroke-linejoin:round;stroke-miterlimit:4;stroke-dasharray:none;stroke-dashoffset:0;stroke-opacity:1" d="m -372.64015,281.61584 39.3264,0 c 108.69904,0 196.20775,87.50863 196.20775,196.2077 l 0,343.94055 c 0,108.69904 -87.50871,196.20761 -196.20775,196.20761 l -39.3264,0 c -108.69905,0 -196.20766,-87.50857 -196.20766,-196.20761 l 0,-343.94055 c 0,-108.69907 87.50861,-196.2077 196.20766,-196.2077 z" id="rect5231" inkscape:connector-curvature="0"/>
    <path inkscape:connector-curvature="0" id="path5539" style="font-style:normal;font-variant:normal;font-weight:800;font-stretch:normal;font-size:medium;line-height:89.99999762%;font-family:Raleway;-inkscape-font-specification:'Raleway Ultra-Bold';letter-spacing:0px;word-spacing:0px;fill:#ffffff;fill-opacity:1;stroke:none;stroke-width:1px;stroke-linecap:butt;stroke-linejoin:miter;stroke-opacity:1" d="m -386.48069,481.75344 67.00728,0 117.26279,350.43804 -76.06237,0 -24.90135,-78.47846 -100.05822,0 -24.44864,78.47846 -76.06218,0 117.26269,-350.43804 z m 71.08202,216.18566 -37.57838,-123.88723 -38.48389,123.88723 76.06227,0 z"/>
  </g>
</svg>
