<?xml version="1.0" encoding="UTF-8" standalone="no"?>
<!-- Created with Inkscape (http://www.inkscape.org/) -->
<svg xmlns:dc="http://purl.org/dc/elements/1.1/" xmlns:cc="http://creativecommons.org/ns#" xmlns:rdf="http://www.w3.org/1999/02/22-rdf-syntax-ns#" xmlns:svg="http://www.w3.org/2000/svg" xmlns="http://www.w3.org/2000/svg" xmlns:sodipodi="http://sodipodi.sourceforge.net/DTD/sodipodi-0.dtd" xmlns:inkscape="http://www.inkscape.org/namespaces/inkscape" width="240" height="130" viewBox="0 0 744.09449 1052.3622" id="svg4443" version="1.1" inkscape:version="0.91 r13725" sodipodi:docname="nutriscore-c.svg">
  <defs id="defs4445"/>
  <sodipodi:namedview id="base" pagecolor="#ffffff" bordercolor="#666666" borderopacity="1.0" inkscape:pageopacity="0.0" inkscape:pageshadow="2" inkscape:zoom="1.979899" inkscape:cx="-44.237774" inkscape:cy="156.34508" inkscape:document-units="px" inkscape:current-layer="layer1" showgrid="false" inkscape:window-width="1920" inkscape:window-height="1018" inkscape:window-x="-8" inkscape:window-y="-8" inkscape:window-maximized="1"/>
  <metadata id="metadata4448">
    <rdf:RDF>
      <cc:Work rdf:about="">
        <dc:format>image/svg+xml</dc:format>
        <dc:type rdf:resource="http://purl.org/dc/dcmitype/StillImage"/>
        <dc:title/>
      </cc:Work>
    </rdf:RDF>
  </metadata>
  <g inkscape:label="Calque 1" inkscape:groupmode="layer" id="layer1">
    <path style="opacity:1;fill:#038141;fill-opacity:1;fill-rule:evenodd;stroke:none;stroke-width:1;stroke-linecap:round;stroke-linejoin:round;stroke-miterlimit:4;stroke-dasharray:none;stroke-dashoffset:0;stroke-opacity:1" d="m -308.51495,357.79059 363.029984,0 0,586.31477 -363.029984,0 z" id="rect5239" inkscape:connector-curvature="0"/>
    <path style="opacity:1;fill:#e63e11;fill-opacity:1;fill-rule:evenodd;stroke:none;stroke-width:1;stroke-linecap:round;stroke-linejoin:round;stroke-miterlimit:4;stroke-dasharray:none;stroke-dashoffset:0;stroke-opacity:1" d="m 748.69823,357.79059 363.02977,0 0,586.31477 -363.02977,0 z" id="rect5241" inkscape:connector-curvature="0"/>
    <path style="opacity:1;fill:#038141;fill-opacity:1;fill-rule:evenodd;stroke:none;stroke-width:1;stroke-linecap:round;stroke-linejoin:round;stroke-miterlimit:4;stroke-dasharray:none;stroke-dashoffset:0;stroke-opacity:1" d="m -382.38116,357.79059 90.64758,0 c 75.44988,0 136.1912,60.74123 136.1912,136.1912 l 0,313.93237 c 0,75.44987 -60.74132,136.1912 -136.1912,136.1912 l -90.64758,0 c -75.44996,0 -136.1912,-60.74133 -136.1912,-136.1912 l 0,-313.93237 c 0,-75.44997 60.74124,-136.1912 136.1912,-136.1912 z" id="rect5243" inkscape:connector-curvature="0"/>
    <path style="opacity:1;fill:#ee8100;fill-opacity:1;fill-rule:evenodd;stroke:none;stroke-width:1;stroke-linecap:round;stroke-linejoin:round;stroke-miterlimit:4;stroke-dasharray:none;stroke-dashoffset:0;stroke-opacity:1" d="m 570.95697,357.79059 363.0296,0 0,586.31477 -363.0296,0 z" id="rect5245" inkscape:connector-curvature="0"/>
    <path inkscape:connector-curvature="0" id="path5531" style="font-style:normal;font-variant:normal;font-weight:800;font-stretch:normal;font-size:medium;line-height:89.99999762%;font-family:Raleway;-inkscape-font-specification:'Raleway Ultra-Bold';letter-spacing:0px;word-spacing:0px;fill:#ffffff;fill-opacity:0.44606413;stroke:none;stroke-width:1px;stroke-linecap:butt;stroke-linejoin:miter;stroke-opacity:1" d="m 659.56123,779.80427 0,-265.80231 99.2078,0 q 32.94453,0 57.65289,10.4824 24.70835,10.4823 41.18024,28.45201 16.84732,17.96981 25.08302,42.30377 8.61066,23.95968 8.61066,51.28864 0,30.32384 -9.35962,55.03229 -9.35867,24.33397 -26.954,41.92929 -17.22122,17.22104 -41.92958,26.95467 -24.33406,9.35924 -54.28361,9.35924 l -99.2078,0 z M 828.77614,646.52878 q 0,-17.59543 -4.86681,-31.82138 -4.49243,-14.60044 -13.47729,-25.08284 -8.98485,-10.4823 -22.08785,-16.09779 -13.1029,-5.61558 -29.57516,-5.61558 l -37.81126,0 0,157.98385 37.81126,0 q 16.84665,0 29.94955,-5.98988 13.10299,-5.98996 21.71346,-16.47226 8.98486,-10.85669 13.47729,-25.08274 4.86681,-14.60044 4.86681,-31.82138 z"/>
    <path style="opacity:1;fill:#fecb02;fill-opacity:1;fill-rule:evenodd;stroke:none;stroke-width:1;stroke-linecap:round;stroke-linejoin:round;stroke-miterlimit:4;stroke-dasharray:none;stroke-dashoffset:0;stroke-opacity:1" d="m 188.25931,357.79059 383.3209,0 0,586.31477 -383.3209,0 z" id="rect5251" inkscape:connector-curvature="0"/>
    <path style="opacity:1;fill:#85bb2f;fill-opacity:1;fill-rule:evenodd;stroke:none;stroke-width:1;stroke-linecap:round;stroke-linejoin:round;stroke-miterlimit:4;stroke-dasharray:none;stroke-dashoffset:0;stroke-opacity:1" d="m 206.86512,357.79059 -363.03008,0 0,586.31477 363.03008,0 z" id="rect5253" inkscape:connector-curvature="0"/>
    <path inkscape:connector-curvature="0" id="path5526" style="font-style:normal;font-variant:normal;font-weight:800;font-stretch:normal;font-size:medium;line-height:89.99999762%;font-family:Raleway;-inkscape-font-specification:'Raleway Ultra-Bold';letter-spacing:0px;word-spacing:0px;fill:#ffffff;fill-opacity:0.44606413;stroke:none;stroke-width:1px;stroke-linecap:butt;stroke-linejoin:miter;stroke-opacity:1" d="m 258.81107,653.89009 q 0,-23.95968 8.98485,-47.54488 8.98495,-23.95967 26.2059,-42.67816 17.22103,-18.71848 41.92939,-30.32384 24.70835,-11.60545 56.15535,-11.60545 37.43696,0 64.76591,16.09788 27.70334,16.09788 41.18063,41.9293 l -47.1705,32.94453 q -4.49243,-10.4823 -11.60545,-17.22104 -6.73865,-7.11293 -14.97483,-11.23107 -8.23608,-4.49242 -16.84655,-5.98987 -8.61057,-1.87183 -16.84666,-1.87183 -17.59532,0 -30.69832,7.11303 -13.1029,7.11303 -21.71337,18.3441 -8.61047,11.23107 -12.72861,25.45712 -4.11804,14.22596 -4.11804,28.8264 0,15.7235 4.86681,30.32393 4.86681,14.60035 13.85167,25.83151 9.35924,11.23107 22.08776,17.96971 13.10299,6.36426 29.20087,6.36426 8.23609,0 16.84656,-1.87183 8.98486,-2.24621 16.84665,-6.36435 8.23609,-4.49243 14.97473,-11.23107 6.73864,-7.11303 10.85678,-17.22094 l 50.16548,29.57516 q -5.98997,14.60044 -17.96971,26.2059 -11.60546,11.60545 -26.95467,19.46715 -15.34911,7.8618 -32.57005,11.97984 -17.22104,4.11805 -33.69331,4.11805 -28.82639,0 -53.16046,-11.60546 -23.95958,-11.97984 -41.55491,-31.44699 -17.22104,-19.46725 -26.95466,-44.17561 -9.35924,-24.70835 -9.35924,-50.16548 z"/>
    <path inkscape:connector-curvature="0" id="path5523" style="font-style:normal;font-variant:normal;font-weight:800;font-stretch:normal;font-size:medium;line-height:89.99999762%;font-family:Raleway;-inkscape-font-specification:'Raleway Ultra-Bold';letter-spacing:0px;word-spacing:0px;fill:#ffffff;fill-opacity:0.44606413;stroke:none;stroke-width:1px;stroke-linecap:butt;stroke-linejoin:miter;stroke-opacity:1" d="m 97.160839,711.66898 q 0,17.22104 -7.113027,29.94956 -7.113027,12.7286 -19.467252,21.33908 -12.354129,8.23608 -28.826397,12.72851 -16.472268,4.11814 -34.8163646,4.11814 l -129.5317384,0 0,-265.80231 147.875835,0 q 13.851669,0 25.082739,5.98997 11.23107,5.98987 19.092867,15.7235 7.861701,9.35924 11.97984,21.71346 4.492428,11.97975 4.492428,24.70836 0,19.09277 -9.733626,35.93942 -9.359241,16.84665 -28.452108,25.45712 22.836525,6.73865 35.93952,23.95968 13.477284,17.22095 13.477284,44.17551 z M 34.641136,699.31485 q 0,-12.35422 -7.113027,-20.96469 -7.113027,-8.61047 -17.9697117,-8.61047 l -70.7557883,0 0,58.02718 68.1351894,0 q 11.9798396,0 19.8415416,-7.86171 7.861796,-7.86179 7.861796,-20.59031 z m -95.838527,-132.9011 0,55.03229 60.2733928,0 q 10.1080106,0 17.9698072,-6.73864 7.861701,-6.73874 7.861701,-20.9647 0,-13.10299 -7.113026,-20.21593 -6.738642,-7.11302 -16.4722682,-7.11302 l -62.5196068,0 z"/>
    <path style="opacity:1;fill:#0039ff;fill-opacity:0.62973764;fill-rule:evenodd;stroke:#ffffff;stroke-width:61.03178787;stroke-linecap:round;stroke-linejoin:round;stroke-miterlimit:4;stroke-dasharray:none;stroke-dashoffset:0;stroke-opacity:1" d="m 360.25661,281.61583 39.3264,0 c 108.69904,0 196.20765,87.50871 196.20765,196.20774 l 0,343.94054 c 0,108.69904 -87.50861,196.20769 -196.20765,196.20769 l -39.3264,0 c -108.69913,0 -196.20774,-87.50865 -196.20774,-196.20769 l 0,-343.94054 c 0,-108.69903 87.50861,-196.20774 196.20774,-196.20774 z" id="rect5263" inkscape:connector-curvature="0"/>
    <path inkscape:connector-curvature="0" id="path5519" style="font-style:normal;font-variant:normal;font-weight:800;font-stretch:normal;font-size:medium;line-height:89.99999762%;font-family:Raleway;-inkscape-font-specification:'Raleway Ultra-Bold';letter-spacing:0px;word-spacing:0px;fill:#ffffff;fill-opacity:0.44606413;stroke:none;stroke-width:1px;stroke-linecap:butt;stroke-linejoin:miter;stroke-opacity:1" d="m -384.71226,514.00196 55.40668,0 96.96168,265.80231 -62.89409,0 -20.59031,-59.52472 -82.73563,0 -20.21592,59.52472 -62.89399,0 96.96158,-265.80231 z m 58.77605,163.97381 -31.07271,-93.9667 -31.82138,93.9667 62.89409,0 z"/>
    <path style="opacity:1;fill:#e63e11;fill-opacity:1;fill-rule:evenodd;stroke:none;stroke-width:1;stroke-linecap:round;stroke-linejoin:round;stroke-miterlimit:4;stroke-dasharray:none;stroke-dashoffset:0;stroke-opacity:1" d="m 1069.5559,357.79059 90.6471,0 c 75.4498,0 136.1917,60.74123 136.1917,136.1912 l 0,313.93237 c 0,75.44987 -60.7419,136.1912 -136.1917,136.1912 l -90.6471,0 c -75.44982,0 -136.19172,-60.74133 -136.19172,-136.1912 l 0,-313.93237 c 0,-75.44997 60.7419,-136.1912 136.19172,-136.1912 z" id="rect5269" inkscape:connector-curvature="0"/>
    <path inkscape:connector-curvature="0" id="path5515" style="font-style:normal;font-variant:normal;font-weight:800;font-stretch:normal;font-size:medium;line-height:89.99999762%;font-family:Raleway;-inkscape-font-specification:'Raleway Ultra-Bold';letter-spacing:0px;word-spacing:0px;fill:#ffffff;fill-opacity:0.44606413;stroke:none;stroke-width:1px;stroke-linecap:butt;stroke-linejoin:miter;stroke-opacity:1" d="m 1188.7072,725.89504 0,53.90923 -186.8108,0 0,-265.80231 183.441,0 0,53.90923 -122.0444,0 0,51.66292 104.824,0 0,49.79119 -104.824,0 0,56.52974 125.4142,0 z"/>
    <path style="opacity:1;fill:#fecb02;fill-opacity:1;fill-rule:evenodd;stroke:none;stroke-width:15.94488144;stroke-linecap:round;stroke-linejoin:round;stroke-miterlimit:4;stroke-dasharray:none;stroke-dashoffset:0;stroke-opacity:1" d="m 360.25661,281.61583 39.3264,0 c 108.69904,0 196.20765,87.50871 196.20765,196.20774 l 0,343.94054 c 0,108.69904 -87.50861,196.20769 -196.20765,196.20769 l -39.3264,0 c -108.69913,0 -196.20774,-87.50865 -196.20774,-196.20769 l 0,-343.94054 c 0,-108.69903 87.50861,-196.20774 196.20774,-196.20774 z" id="rect5275" inkscape:connector-curvature="0"/>
    <path inkscape:connector-curvature="0" id="path5511" style="font-style:normal;font-variant:normal;font-weight:800;font-stretch:normal;font-size:medium;line-height:89.99999762%;font-family:Raleway;-inkscape-font-specification:'Raleway Ultra-Bold';letter-spacing:0px;word-spacing:0px;fill:#ffffff;fill-opacity:1;stroke:none;stroke-width:1px;stroke-linecap:butt;stroke-linejoin:miter;stroke-opacity:1" d="m 228.47428,654.01095 q 0,-31.58869 10.86611,-62.68395 10.86601,-31.5888 31.69262,-56.26746 20.82661,-24.67876 50.70821,-39.97953 29.8816,-15.30086 67.91279,-15.30086 45.27516,0 78.32637,21.22374 33.50345,21.22374 49.80223,55.28029 l -57.04649,43.43464 q -5.43324,-13.82007 -14.03562,-22.70443 -8.1493,-9.3779 -18.1099,-14.80724 -9.9605,-5.92297 -20.37371,-7.8972 -10.4134,-2.46795 -20.3739,-2.46795 -21.27932,0 -37.12567,9.3779 -15.84627,9.37789 -26.25957,24.18522 -10.41331,14.80724 -15.39356,33.56302 -4.98025,18.75588 -4.98025,38.0052 0,20.73021 5.88576,39.97963 5.88576,19.24951 16.75177,34.05665 11.31882,14.80723 26.71237,23.69159 15.84636,8.39073 35.31466,8.39073 9.9606,0 20.37381,-2.46785 10.8661,-2.96139 20.3739,-8.39073 9.9605,-5.92297 18.11037,-14.80724 8.14929,-9.37799 13.12954,-22.70443 l 60.66862,38.99236 q -7.24435,19.24942 -21.73193,34.55028 -14.03562,15.30077 -32.59841,25.66582 -18.56279,10.36515 -39.38921,15.7944 -20.82661,5.42934 -40.74771,5.42934 -34.86185,0 -64.29075,-15.30077 -28.97609,-15.79449 -50.25541,-41.46031 -20.82661,-25.66583 -32.59822,-58.24188 -11.31882,-32.57586 -11.31882,-66.13898 z"/>
  </g>
</svg>
