<?xml version="1.0" encoding="UTF-8" standalone="no"?>
<!-- Created with Inkscape (http://www.inkscape.org/) -->
<svg xmlns:dc="http://purl.org/dc/elements/1.1/" xmlns:cc="http://creativecommons.org/ns#" xmlns:rdf="http://www.w3.org/1999/02/22-rdf-syntax-ns#" xmlns:svg="http://www.w3.org/2000/svg" xmlns="http://www.w3.org/2000/svg" xmlns:sodipodi="http://sodipodi.sourceforge.net/DTD/sodipodi-0.dtd" xmlns:inkscape="http://www.inkscape.org/namespaces/inkscape" width="240" height="130" viewBox="0 0 744.09449 1052.3622" id="svg4443" version="1.1" inkscape:version="0.91 r13725" sodipodi:docname="nutriscore-e.svg">
  <defs id="defs4445"/>
  <sodipodi:namedview id="base" pagecolor="#ffffff" bordercolor="#666666" borderopacity="1.0" inkscape:pageopacity="0.0" inkscape:pageshadow="2" inkscape:zoom="1.979899" inkscape:cx="-44.237774" inkscape:cy="156.34508" inkscape:document-units="px" inkscape:current-layer="layer1" showgrid="false" inkscape:window-width="1920" inkscape:window-height="1018" inkscape:window-x="-8" inkscape:window-y="-8" inkscape:window-maximized="1"/>
  <metadata id="metadata4448">
    <rdf:RDF>
      <cc:Work rdf:about="">
        <dc:format>image/svg+xml</dc:format>
        <dc:type rdf:resource="http://purl.org/dc/dcmitype/StillImage"/>
        <dc:title/>
      </cc:Work>
    </rdf:RDF>
  </metadata>
  <g inkscape:label="Calque 1" inkscape:groupmode="layer" id="layer1">
    <path style="opacity:1;fill:#038141;fill-opacity:1;fill-rule:evenodd;stroke:none;stroke-width:1;stroke-linecap:round;stroke-linejoin:round;stroke-miterlimit:4;stroke-dasharray:none;stroke-dashoffset:0;stroke-opacity:1" d="m -308.51495,357.79019 363.029984,0 0,586.31477 -363.029984,0 z" id="rect5335" inkscape:connector-curvature="0"/>
    <path style="opacity:1;fill:#e63e11;fill-opacity:1;fill-rule:evenodd;stroke:none;stroke-width:1;stroke-linecap:round;stroke-linejoin:round;stroke-miterlimit:4;stroke-dasharray:none;stroke-dashoffset:0;stroke-opacity:1" d="m 748.69823,357.79019 363.02977,0 0,586.31477 -363.02977,0 z" id="rect5337" inkscape:connector-curvature="0"/>
    <path style="opacity:1;fill:#038141;fill-opacity:1;fill-rule:evenodd;stroke:none;stroke-width:1;stroke-linecap:round;stroke-linejoin:round;stroke-miterlimit:4;stroke-dasharray:none;stroke-dashoffset:0;stroke-opacity:1" d="m -382.38116,357.79019 90.64758,0 c 75.44988,0 136.1912,60.74133 136.1912,136.19121 l 0,313.93236 c 0,75.44997 -60.74132,136.1912 -136.1912,136.1912 l -90.64758,0 c -75.44996,0 -136.1912,-60.74123 -136.1912,-136.1912 l 0,-313.93236 c 0,-75.44988 60.74124,-136.19121 136.1912,-136.19121 z" id="rect5339" inkscape:connector-curvature="0"/>
    <path style="opacity:1;fill:#ee8100;fill-opacity:1;fill-rule:evenodd;stroke:none;stroke-width:1;stroke-linecap:round;stroke-linejoin:round;stroke-miterlimit:4;stroke-dasharray:none;stroke-dashoffset:0;stroke-opacity:1" d="m 570.95697,357.79019 363.0296,0 0,586.31477 -363.0296,0 z" id="rect5341" inkscape:connector-curvature="0"/>
    <path inkscape:connector-curvature="0" id="path5429" style="font-style:normal;font-variant:normal;font-weight:800;font-stretch:normal;font-size:medium;line-height:89.99999762%;font-family:Raleway;-inkscape-font-specification:'Raleway Ultra-Bold';letter-spacing:0px;word-spacing:0px;fill:#ffffff;fill-opacity:0.44606413;stroke:none;stroke-width:1px;stroke-linecap:butt;stroke-linejoin:miter;stroke-opacity:1" d="m 600.08095,779.80387 0,-265.80221 99.2079,0 q 32.94453,0 57.65289,10.4823 24.70835,10.48239 41.18062,28.45211 16.84665,17.96971 25.08274,42.30368 8.61047,23.95968 8.61047,51.28863 0,30.32394 -9.35924,55.03229 -9.35924,24.33397 -26.95457,41.92939 -17.22094,17.22094 -41.92939,26.95457 -24.33397,9.35924 -54.28352,9.35924 l -99.2079,0 z M 769.29596,646.52838 q 0,-17.59533 -4.86681,-31.82138 -4.49243,-14.60044 -13.47729,-25.08274 -8.98495,-10.48239 -22.08785,-16.09788 -13.1029,-5.61558 -29.57516,-5.61558 l -37.81126,0 0,157.98384 37.81126,0 q 16.84665,0 29.94955,-5.98987 13.1029,-5.98987 21.71346,-16.47227 8.98486,-10.85669 13.47729,-25.08274 4.86681,-14.60044 4.86681,-31.82138 z"/>
    <path style="opacity:1;fill:#fecb02;fill-opacity:1;fill-rule:evenodd;stroke:none;stroke-width:1;stroke-linecap:round;stroke-linejoin:round;stroke-miterlimit:4;stroke-dasharray:none;stroke-dashoffset:0;stroke-opacity:1" d="m 188.25931,357.79019 383.3209,0 0,586.31477 -383.3209,0 z" id="rect5347" inkscape:connector-curvature="0"/>
    <path style="opacity:1;fill:#85bb2f;fill-opacity:1;fill-rule:evenodd;stroke:none;stroke-width:1;stroke-linecap:round;stroke-linejoin:round;stroke-miterlimit:4;stroke-dasharray:none;stroke-dashoffset:0;stroke-opacity:1" d="m 206.86512,357.79019 -363.03008,0 0,586.31477 363.03008,0 z" id="rect5349" inkscape:connector-curvature="0"/>
    <path inkscape:connector-curvature="0" id="path5424" style="font-style:normal;font-variant:normal;font-weight:800;font-stretch:normal;font-size:medium;line-height:89.99999762%;font-family:Raleway;-inkscape-font-specification:'Raleway Ultra-Bold';letter-spacing:0px;word-spacing:0px;fill:#ffffff;fill-opacity:0.44606413;stroke:none;stroke-width:1px;stroke-linecap:butt;stroke-linejoin:miter;stroke-opacity:1" d="m 258.81107,642.41043 q 0,-23.95968 8.98485,-47.54497 8.98495,-23.95959 26.2059,-42.67807 17.22103,-18.71848 41.92939,-30.32393 24.70835,-11.60546 56.15535,-11.60546 37.43696,0 64.76591,16.09788 27.70334,16.09789 41.18063,41.9294 l -47.1705,32.94444 q -4.49243,-10.4823 -11.60545,-17.22095 -6.73865,-7.11302 -14.97483,-11.23107 -8.23608,-4.49242 -16.84655,-5.98996 -8.61057,-1.87183 -16.84666,-1.87183 -17.59532,0 -30.69832,7.11302 -13.1029,7.11303 -21.71337,18.3441 -8.61047,11.23107 -12.72861,25.45712 -4.11804,14.22606 -4.11804,28.8265 0,15.72349 4.86681,30.32384 4.86681,14.60044 13.85167,25.83151 9.35924,11.23107 22.08776,17.96971 13.10299,6.36426 29.20087,6.36426 8.23609,0 16.84656,-1.87183 8.98486,-2.24622 16.84665,-6.36426 8.23609,-4.49243 14.97473,-11.23107 6.73864,-7.11303 10.85678,-17.22104 l 50.16548,29.57526 q -5.98997,14.60035 -17.96971,26.2058 -11.60546,11.60546 -26.95467,19.46725 -15.34911,7.86171 -32.57005,11.97975 -17.22104,4.11814 -33.69331,4.11814 -28.82639,0 -53.16046,-11.60546 -23.95958,-11.97984 -41.55491,-31.44709 -17.22104,-19.46716 -26.95466,-44.17551 -9.35924,-24.70845 -9.35924,-50.16548 z"/>
    <path inkscape:connector-curvature="0" id="path5421" style="font-style:normal;font-variant:normal;font-weight:800;font-stretch:normal;font-size:medium;line-height:89.99999762%;font-family:Raleway;-inkscape-font-specification:'Raleway Ultra-Bold';letter-spacing:0px;word-spacing:0px;fill:#ffffff;fill-opacity:0.44606413;stroke:none;stroke-width:1px;stroke-linecap:butt;stroke-linejoin:miter;stroke-opacity:1" d="m 154.55231,711.66868 q 0,17.22094 -7.11303,29.94955 -7.11303,12.72852 -19.46725,21.33899 -12.35413,8.23618 -28.8264,12.72861 -16.472267,4.11804 -34.816364,4.11804 l -129.531833,0 0,-265.80221 147.87593,0 q 13.851668,0 25.082737,5.98987 11.23107,5.98997 19.09287,15.7235 7.8617,9.35924 11.97984,21.71346 4.49243,11.97984 4.49243,24.70836 0,19.09287 -9.73363,35.93942 -9.35924,16.84666 -28.45211,25.45713 22.83653,6.73864 35.93952,23.95968 13.47729,17.22094 13.47729,44.1756 z M 92.032603,699.31446 q 0,-12.35423 -7.113026,-20.9647 -7.113027,-8.61047 -17.969713,-8.61047 l -70.7557882,0 0,58.02727 68.1351902,0 q 11.979839,0 19.841541,-7.86179 7.861796,-7.8618 7.861796,-20.59031 z m -95.8385272,-132.90111 0,55.03229 60.2733932,0 q 10.108011,0 17.969807,-6.73864 7.861702,-6.73864 7.861702,-20.9647 0,-13.1029 -7.113027,-20.21592 -6.738642,-7.11303 -16.472268,-7.11303 l -62.5196072,0 z"/>
    <path style="opacity:1;fill:#0039ff;fill-opacity:0.62973764;fill-rule:evenodd;stroke:#ffffff;stroke-width:61.03178787;stroke-linecap:round;stroke-linejoin:round;stroke-miterlimit:4;stroke-dasharray:none;stroke-dashoffset:0;stroke-opacity:1" d="m 1075.638,281.61582 39.3266,0 c 108.6992,0 196.2076,87.5086 196.2076,196.20764 l 0,343.94054 c 0,108.69904 -87.5084,196.2076 -196.2076,196.2076 l -39.3266,0 c -108.69909,0 -196.20751,-87.50856 -196.20751,-196.2076 l 0,-343.94054 c 0,-108.69904 87.50842,-196.20764 196.20751,-196.20764 z" id="rect5359" inkscape:connector-curvature="0"/>
    <path inkscape:connector-curvature="0" id="path5417" style="font-style:normal;font-variant:normal;font-weight:800;font-stretch:normal;font-size:medium;line-height:89.99999762%;font-family:Raleway;-inkscape-font-specification:'Raleway Ultra-Bold';letter-spacing:0px;word-spacing:0px;fill:#ffffff;fill-opacity:0.44606413;stroke:none;stroke-width:1px;stroke-linecap:butt;stroke-linejoin:miter;stroke-opacity:1" d="m -384.71226,514.00166 55.40668,0 96.96168,265.80221 -62.89409,0 -20.59031,-59.52472 -82.73563,0 -20.21592,59.52472 -62.89399,0 96.96158,-265.80221 z m 58.77605,163.97372 -31.07271,-93.9667 -31.82138,93.9667 62.89409,0 z"/>
    <path style="opacity:1;fill:#e63e11;fill-opacity:1;fill-rule:evenodd;stroke:none;stroke-width:1;stroke-linecap:round;stroke-linejoin:round;stroke-miterlimit:4;stroke-dasharray:none;stroke-dashoffset:0;stroke-opacity:1" d="m 1069.5559,357.79019 90.6471,0 c 75.4498,0 136.1917,60.74133 136.1917,136.19121 l 0,313.93236 c 0,75.44997 -60.7419,136.1912 -136.1917,136.1912 l -90.6471,0 c -75.44982,0 -136.19172,-60.74123 -136.19172,-136.1912 l 0,-313.93236 c 0,-75.44988 60.7419,-136.19121 136.19172,-136.19121 z" id="rect5365" inkscape:connector-curvature="0"/>
    <path inkscape:connector-curvature="0" id="path5413" style="font-style:normal;font-variant:normal;font-weight:800;font-stretch:normal;font-size:medium;line-height:89.99999762%;font-family:Raleway;-inkscape-font-specification:'Raleway Ultra-Bold';letter-spacing:0px;word-spacing:0px;fill:#ffffff;fill-opacity:0.44606413;stroke:none;stroke-width:1px;stroke-linecap:butt;stroke-linejoin:miter;stroke-opacity:1" d="m 1188.7072,725.89464 0,53.90923 -186.8108,0 0,-265.80221 183.441,0 0,53.90914 -122.0444,0 0,51.66301 104.824,0 0,49.7911 -104.824,0 0,56.52973 125.4142,0 z"/>
    <path style="opacity:1;fill:#e63e11;fill-opacity:1;fill-rule:evenodd;stroke:none;stroke-width:15.94488144;stroke-linecap:round;stroke-linejoin:round;stroke-miterlimit:4;stroke-dasharray:none;stroke-dashoffset:0;stroke-opacity:1" d="m 1075.638,281.61582 39.3266,0 c 108.6992,0 196.2076,87.5086 196.2076,196.20764 l 0,343.94054 c 0,108.69904 -87.5084,196.2076 -196.2076,196.2076 l -39.3266,0 c -108.69909,0 -196.20751,-87.50856 -196.20751,-196.2076 l 0,-343.94054 c 0,-108.69904 87.50842,-196.20764 196.20751,-196.20764 z" id="rect5371" inkscape:connector-curvature="0"/>
    <path inkscape:connector-curvature="0" id="path5409" style="font-style:normal;font-variant:normal;font-weight:800;font-stretch:normal;font-size:medium;line-height:89.99999762%;font-family:Raleway;-inkscape-font-specification:'Raleway Ultra-Bold';letter-spacing:0px;word-spacing:0px;fill:#ffffff;fill-opacity:1;stroke:none;stroke-width:1px;stroke-linecap:butt;stroke-linejoin:miter;stroke-opacity:1" d="m 1188.3427,761.11641 0,71.0747 -225.92325,0 0,-350.43803 221.84825,0 0,71.07478 -147.5975,0 0,68.1133 126.7703,0 0,65.64545 -126.7703,0 0,74.5298 151.6725,0 z"/>
  </g>
</svg>
