<?xml version="1.0" encoding="UTF-8" standalone="no"?>
<!-- Created with Inkscape (http://www.inkscape.org/) -->
<svg xmlns:dc="http://purl.org/dc/elements/1.1/" xmlns:cc="http://creativecommons.org/ns#" xmlns:rdf="http://www.w3.org/1999/02/22-rdf-syntax-ns#" xmlns:svg="http://www.w3.org/2000/svg" xmlns="http://www.w3.org/2000/svg" xmlns:sodipodi="http://sodipodi.sourceforge.net/DTD/sodipodi-0.dtd" xmlns:inkscape="http://www.inkscape.org/namespaces/inkscape" width="240" height="130" viewBox="0 0 744.09449 1052.3622" id="svg4443" version="1.1" inkscape:version="0.91 r13725" sodipodi:docname="nutriscore-d.svg">
  <defs id="defs4445"/>
  <sodipodi:namedview id="base" pagecolor="#ffffff" bordercolor="#666666" borderopacity="1.0" inkscape:pageopacity="0.0" inkscape:pageshadow="2" inkscape:zoom="1.979899" inkscape:cx="-44.237774" inkscape:cy="156.34508" inkscape:document-units="px" inkscape:current-layer="layer1" showgrid="false" inkscape:window-width="1920" inkscape:window-height="1018" inkscape:window-x="-8" inkscape:window-y="-8" inkscape:window-maximized="1"/>
  <metadata id="metadata4448">
    <rdf:RDF>
      <cc:Work rdf:about="">
        <dc:format>image/svg+xml</dc:format>
        <dc:type rdf:resource="http://purl.org/dc/dcmitype/StillImage"/>
        <dc:title/>
      </cc:Work>
    </rdf:RDF>
  </metadata>
  <g inkscape:label="Calque 1" inkscape:groupmode="layer" id="layer1">
    <path style="opacity:1;fill:#038141;fill-opacity:1;fill-rule:evenodd;stroke:none;stroke-width:1;stroke-linecap:round;stroke-linejoin:round;stroke-miterlimit:4;stroke-dasharray:none;stroke-dashoffset:0;stroke-opacity:1" d="m -308.51495,357.79049 363.029984,0 0,586.31477 -363.029984,0 z" id="rect5287" inkscape:connector-curvature="0"/>
    <path style="opacity:1;fill:#e63e11;fill-opacity:1;fill-rule:evenodd;stroke:none;stroke-width:1;stroke-linecap:round;stroke-linejoin:round;stroke-miterlimit:4;stroke-dasharray:none;stroke-dashoffset:0;stroke-opacity:1" d="m 748.69823,357.79049 363.02977,0 0,586.31477 -363.02977,0 z" id="rect5289" inkscape:connector-curvature="0"/>
    <path style="opacity:1;fill:#038141;fill-opacity:1;fill-rule:evenodd;stroke:none;stroke-width:1;stroke-linecap:round;stroke-linejoin:round;stroke-miterlimit:4;stroke-dasharray:none;stroke-dashoffset:0;stroke-opacity:1" d="m -382.38116,357.79049 90.64758,0 c 75.44988,0 136.1912,60.74133 136.1912,136.1913 l 0,313.93227 c 0,75.44996 -60.74132,136.1912 -136.1912,136.1912 l -90.64758,0 c -75.44996,0 -136.1912,-60.74124 -136.1912,-136.1912 l 0,-313.93227 c 0,-75.44997 60.74124,-136.1913 136.1912,-136.1913 z" id="rect5291" inkscape:connector-curvature="0"/>
    <path style="opacity:1;fill:#ee8100;fill-opacity:1;fill-rule:evenodd;stroke:none;stroke-width:1;stroke-linecap:round;stroke-linejoin:round;stroke-miterlimit:4;stroke-dasharray:none;stroke-dashoffset:0;stroke-opacity:1" d="m 570.95697,357.79049 363.0296,0 0,586.31477 -363.0296,0 z" id="rect5293" inkscape:connector-curvature="0"/>
    <path inkscape:connector-curvature="0" id="path5480" style="font-style:normal;font-variant:normal;font-weight:800;font-stretch:normal;font-size:medium;line-height:89.99999762%;font-family:Raleway;-inkscape-font-specification:'Raleway Ultra-Bold';letter-spacing:0px;word-spacing:0px;fill:#ffffff;fill-opacity:0.44606413;stroke:none;stroke-width:1px;stroke-linecap:butt;stroke-linejoin:miter;stroke-opacity:1" d="m 636.60479,789.03741 0,-265.80222 99.2079,0 q 32.94453,0 57.65289,10.4823 24.70835,10.48231 41.18062,28.45211 16.84627,17.96971 25.08293,42.30368 8.61066,23.95968 8.61066,51.28864 0,30.32393 -9.35962,55.03229 -9.35962,24.33397 -26.95457,41.92939 -17.22094,17.22094 -41.92939,26.95457 -24.33397,9.35924 -54.28352,9.35924 l -99.2079,0 z M 805.8198,655.76192 q 0,-17.59543 -4.86681,-31.82139 -4.49243,-14.60043 -13.47729,-25.08273 -8.98485,-10.4824 -22.08785,-16.09789 -13.1029,-5.61558 -29.57516,-5.61558 l -37.81126,0 0,157.98385 37.81126,0 q 16.84665,0 29.94955,-5.98988 13.1029,-5.98996 21.71346,-16.47226 8.98486,-10.85669 13.47729,-25.08274 4.86681,-14.60044 4.86681,-31.82138 z"/>
    <path style="opacity:1;fill:#fecb02;fill-opacity:1;fill-rule:evenodd;stroke:none;stroke-width:1;stroke-linecap:round;stroke-linejoin:round;stroke-miterlimit:4;stroke-dasharray:none;stroke-dashoffset:0;stroke-opacity:1" d="m 188.25931,357.79049 383.3209,0 0,586.31477 -383.3209,0 z" id="rect5299" inkscape:connector-curvature="0"/>
    <path style="opacity:1;fill:#85bb2f;fill-opacity:1;fill-rule:evenodd;stroke:none;stroke-width:1;stroke-linecap:round;stroke-linejoin:round;stroke-miterlimit:4;stroke-dasharray:none;stroke-dashoffset:0;stroke-opacity:1" d="m 206.86512,357.79049 -363.03008,0 0,586.31477 363.03008,0 z" id="rect5301" inkscape:connector-curvature="0"/>
    <path inkscape:connector-curvature="0" id="path5475" style="font-style:normal;font-variant:normal;font-weight:800;font-stretch:normal;font-size:medium;line-height:89.99999762%;font-family:Raleway;-inkscape-font-specification:'Raleway Ultra-Bold';letter-spacing:0px;word-spacing:0px;fill:#ffffff;fill-opacity:0.44606413;stroke:none;stroke-width:1px;stroke-linecap:butt;stroke-linejoin:miter;stroke-opacity:1" d="m 230.40407,642.41073 q 0,-23.95968 8.98485,-47.54488 8.98486,-23.95968 26.2059,-42.67816 17.22094,-18.71848 41.92929,-30.32394 24.70836,-11.60545 56.15545,-11.60545 37.43687,0 64.76582,16.09788 27.70334,16.09788 41.18072,41.92939 l -47.17059,32.94454 q -4.49243,-10.4824 -11.60546,-17.22104 -6.73864,-7.11303 -14.97473,-11.23107 -8.23618,-4.49243 -16.84665,-5.98987 -8.61047,-1.87183 -16.84665,-1.87183 -17.59533,0 -30.69823,7.11302 -13.10299,7.11294 -21.71346,18.3441 -8.61047,11.23107 -12.72852,25.45703 -4.11804,14.22605 -4.11804,28.82649 0,15.7235 4.86672,30.32394 4.86681,14.60034 13.85167,25.83141 9.35924,11.23107 22.08785,17.96981 13.1029,6.36426 29.20078,6.36426 8.23609,0 16.84665,-1.87183 8.98486,-2.24622 16.84656,-6.36436 8.23618,-4.49242 14.97482,-11.23107 6.73864,-7.11302 10.85669,-17.22094 l 50.16548,29.57517 q -5.98988,14.60044 -17.96972,26.2058 -11.60545,11.60545 -26.95456,19.46725 -15.34912,7.8618 -32.57015,11.97984 -17.22095,4.11804 -33.69321,4.11804 -28.8265,0 -53.16047,-11.60545 -23.95968,-11.97984 -41.555,-31.447 -17.22095,-19.46725 -26.95457,-44.1756 -9.35924,-24.70836 -9.35924,-50.16548 z"/>
    <path inkscape:connector-curvature="0" id="path5472" style="font-style:normal;font-variant:normal;font-weight:800;font-stretch:normal;font-size:medium;line-height:89.99999762%;font-family:Raleway;-inkscape-font-specification:'Raleway Ultra-Bold';letter-spacing:0px;word-spacing:0px;fill:#ffffff;fill-opacity:0.44606413;stroke:none;stroke-width:1px;stroke-linecap:butt;stroke-linejoin:miter;stroke-opacity:1" d="m 154.55231,711.66898 q 0,17.22094 -7.11303,29.94955 -7.11303,12.72851 -19.46725,21.33908 -12.35413,8.23609 -28.8264,12.72851 -16.472267,4.11805 -34.816364,4.11805 l -129.531833,0 0,-265.80222 147.87593,0 q 13.851668,0 25.082737,5.98997 11.23107,5.98987 19.09287,15.7235 7.8617,9.35924 11.97984,21.71337 4.49243,11.97984 4.49243,24.70835 0,19.09287 -9.73363,35.93952 -9.35924,16.84656 -28.45211,25.45713 22.83653,6.73864 35.93952,23.95958 13.47729,17.22104 13.47729,44.17561 z M 92.032603,699.31475 q 0,-12.35413 -7.113026,-20.96469 -7.113027,-8.61047 -17.969713,-8.61047 l -70.7557882,0 0,58.02727 68.1351902,0 q 11.979839,0 19.841541,-7.8618 7.861796,-7.8617 7.861796,-20.59031 z m -95.8385272,-132.9011 0,55.03229 60.2733932,0 q 10.108011,0 17.969807,-6.73865 7.861702,-6.73864 7.861702,-20.96469 0,-13.1029 -7.113027,-20.21593 -6.738642,-7.11302 -16.472268,-7.11302 l -62.5196072,0 z"/>
    <path inkscape:connector-curvature="0" id="path5469" style="font-style:normal;font-variant:normal;font-weight:800;font-stretch:normal;font-size:medium;line-height:89.99999762%;font-family:Raleway;-inkscape-font-specification:'Raleway Ultra-Bold';letter-spacing:0px;word-spacing:0px;fill:#ffffff;fill-opacity:0.44606413;stroke:none;stroke-width:1px;stroke-linecap:butt;stroke-linejoin:miter;stroke-opacity:1" d="m -384.71226,514.00195 55.40668,0 96.96168,265.80222 -62.89409,0 -20.59031,-59.52472 -82.73563,0 -20.21592,59.52472 -62.89399,0 96.96158,-265.80222 z m 58.77605,163.97382 -31.07271,-93.9667 -31.82138,93.9667 62.89409,0 z"/>
    <path style="opacity:1;fill:#e63e11;fill-opacity:1;fill-rule:evenodd;stroke:none;stroke-width:1;stroke-linecap:round;stroke-linejoin:round;stroke-miterlimit:4;stroke-dasharray:none;stroke-dashoffset:0;stroke-opacity:1" d="m 1069.5559,357.79049 90.6471,0 c 75.4498,0 136.1917,60.74133 136.1917,136.1913 l 0,313.93227 c 0,75.44996 -60.7419,136.1912 -136.1917,136.1912 l -90.6471,0 c -75.44982,0 -136.19172,-60.74124 -136.19172,-136.1912 l 0,-313.93227 c 0,-75.44997 60.7419,-136.1913 136.19172,-136.1913 z" id="rect5315" inkscape:connector-curvature="0"/>
    <path style="opacity:1;fill:#0039ff;fill-opacity:0.62973764;fill-rule:evenodd;stroke:#ffffff;stroke-width:61.03178787;stroke-linecap:round;stroke-linejoin:round;stroke-miterlimit:4;stroke-dasharray:none;stroke-dashoffset:0;stroke-opacity:1" d="m 732.80857,281.61583 39.3264,0 c 108.69922,0 196.20764,87.5086 196.20764,196.20764 l 0,343.94054 c 0,108.69904 -87.50842,196.20779 -196.20764,196.20779 l -39.3264,0 c -108.69914,0 -196.20774,-87.50875 -196.20774,-196.20779 l 0,-343.94054 c 0,-108.69904 87.5086,-196.20764 196.20774,-196.20764 z" id="rect5317" inkscape:connector-curvature="0"/>
    <path inkscape:connector-curvature="0" id="path5464" style="font-style:normal;font-variant:normal;font-weight:800;font-stretch:normal;font-size:medium;line-height:89.99999762%;font-family:Raleway;-inkscape-font-specification:'Raleway Ultra-Bold';letter-spacing:0px;word-spacing:0px;fill:#ffffff;fill-opacity:0.44606413;stroke:none;stroke-width:1px;stroke-linecap:butt;stroke-linejoin:miter;stroke-opacity:1" d="m 1233.3469,725.89503 0,53.90914 -186.8108,0 0,-265.80222 183.441,0 0,53.90924 -122.0443,0 0,51.66292 104.823,0 0,49.79109 -104.823,0 0,56.52983 125.4141,0 z"/>
    <path style="opacity:1;fill:#ee8100;fill-opacity:1;fill-rule:evenodd;stroke:none;stroke-width:15.94488144;stroke-linecap:round;stroke-linejoin:round;stroke-miterlimit:4;stroke-dasharray:none;stroke-dashoffset:0;stroke-opacity:1" d="m 732.80857,281.61583 39.3264,0 c 108.69922,0 196.20764,87.5086 196.20764,196.20764 l 0,343.94054 c 0,108.69904 -87.50842,196.20779 -196.20764,196.20779 l -39.3264,0 c -108.69914,0 -196.20774,-87.50875 -196.20774,-196.20779 l 0,-343.94054 c 0,-108.69904 87.5086,-196.20764 196.20774,-196.20764 z" id="rect5323" inkscape:connector-curvature="0"/>
    <path inkscape:connector-curvature="0" id="path5460" style="font-style:normal;font-variant:normal;font-weight:800;font-stretch:normal;font-size:medium;line-height:89.99999762%;font-family:Raleway;-inkscape-font-specification:'Raleway Ultra-Bold';letter-spacing:0px;word-spacing:0px;fill:#ffffff;fill-opacity:1;stroke:none;stroke-width:1px;stroke-linecap:butt;stroke-linejoin:miter;stroke-opacity:1" d="m 612.34562,832.19131 0,-350.43803 119.97912,0 q 39.84173,0 69.72399,13.82007 29.88132,13.82007 49.80252,37.51176 20.37323,23.6916 30.33431,55.77393 10.41311,31.58879 10.41311,67.61967 0,39.97962 -11.31815,72.55548 -11.31909,32.08233 -32.59832,55.28039 -20.82641,22.70443 -50.70859,35.53735 -29.42832,12.33938 -65.64887,12.33938 l -119.97912,0 z m 204.64377,-175.7126 q 0,-23.19797 -5.88623,-41.95375 -5.43229,-19.24952 -16.29869,-33.06959 -10.86648,-13.82007 -26.71218,-21.22364 -15.84664,-7.40367 -35.76755,-7.40367 l -45.72796,0 0,208.28846 45.72796,0 q 20.3739,0 36.22055,-7.8972 15.84569,-7.8971 26.25918,-21.71718 10.8664,-14.31379 16.29869,-33.06958 5.88623,-19.24942 5.88623,-41.95385 z"/>
  </g>
</svg>
