<?xml version="1.0" encoding="UTF-8" standalone="no"?>
<!-- Created with Inkscape (http://www.inkscape.org/) -->
<svg xmlns:dc="http://purl.org/dc/elements/1.1/" xmlns:cc="http://creativecommons.org/ns#" xmlns:rdf="http://www.w3.org/1999/02/22-rdf-syntax-ns#" xmlns:svg="http://www.w3.org/2000/svg" xmlns="http://www.w3.org/2000/svg" xmlns:sodipodi="http://sodipodi.sourceforge.net/DTD/sodipodi-0.dtd" xmlns:inkscape="http://www.inkscape.org/namespaces/inkscape" width="240" height="130" viewBox="0 0 744.09449 1052.3622" id="svg4443" version="1.1" inkscape:version="0.91 r13725" sodipodi:docname="nutriscore-b.svg">
  <defs id="defs4445"/>
  <sodipodi:namedview id="base" pagecolor="#ffffff" bordercolor="#666666" borderopacity="1.0" inkscape:pageopacity="0.0" inkscape:pageshadow="2" inkscape:zoom="1.979899" inkscape:cx="-44.237774" inkscape:cy="156.34508" inkscape:document-units="px" inkscape:current-layer="layer1" showgrid="false" inkscape:window-width="1920" inkscape:window-height="1018" inkscape:window-x="-8" inkscape:window-y="-8" inkscape:window-maximized="1"/>
  <metadata id="metadata4448">
    <rdf:RDF>
      <cc:Work rdf:about="">
        <dc:format>image/svg+xml</dc:format>
        <dc:type rdf:resource="http://purl.org/dc/dcmitype/StillImage"/>
        <dc:title/>
      </cc:Work>
    </rdf:RDF>
  </metadata>
  <g inkscape:label="Calque 1" inkscape:groupmode="layer" id="layer1">
    <path style="opacity:1;fill:#038141;fill-opacity:1;fill-rule:evenodd;stroke:none;stroke-width:1;stroke-linecap:round;stroke-linejoin:round;stroke-miterlimit:4;stroke-dasharray:none;stroke-dashoffset:0;stroke-opacity:1" d="m -308.51495,357.79046 363.029984,0 0,586.31476 -363.029984,0 z" id="rect5163" inkscape:connector-curvature="0"/>
    <path style="opacity:1;fill:#e63e11;fill-opacity:1;fill-rule:evenodd;stroke:none;stroke-width:1;stroke-linecap:round;stroke-linejoin:round;stroke-miterlimit:4;stroke-dasharray:none;stroke-dashoffset:0;stroke-opacity:1" d="m 748.69823,357.79046 363.02977,0 0,586.31476 -363.02977,0 z" id="rect5165" inkscape:connector-curvature="0"/>
    <path style="opacity:1;fill:#038141;fill-opacity:1;fill-rule:evenodd;stroke:none;stroke-width:1;stroke-linecap:round;stroke-linejoin:round;stroke-miterlimit:4;stroke-dasharray:none;stroke-dashoffset:0;stroke-opacity:1" d="m -382.38116,357.79046 90.64758,0 c 75.44988,0 136.1912,60.74132 136.1912,136.1912 l 0,313.93236 c 0,75.44988 -60.74132,136.1912 -136.1912,136.1912 l -90.64758,0 c -75.44996,0 -136.1912,-60.74132 -136.1912,-136.1912 l 0,-313.93236 c 0,-75.44988 60.74124,-136.1912 136.1912,-136.1912 z" id="rect5167" inkscape:connector-curvature="0"/>
    <path style="opacity:1;fill:#ee8100;fill-opacity:1;fill-rule:evenodd;stroke:none;stroke-width:1;stroke-linecap:round;stroke-linejoin:round;stroke-miterlimit:4;stroke-dasharray:none;stroke-dashoffset:0;stroke-opacity:1" d="m 570.95697,357.79046 363.0296,0 0,586.31476 -363.0296,0 z" id="rect5169" inkscape:connector-curvature="0"/>
    <path inkscape:connector-curvature="0" id="path5600" style="font-style:normal;font-variant:normal;font-weight:800;font-stretch:normal;font-size:medium;line-height:89.99999762%;font-family:Raleway;-inkscape-font-specification:'Raleway Ultra-Bold';letter-spacing:0px;word-spacing:0px;fill:#ffffff;fill-opacity:0.44606413;stroke:none;stroke-width:1px;stroke-linecap:butt;stroke-linejoin:miter;stroke-opacity:1" d="m 636.60479,779.80423 0,-265.80221 99.2079,0 q 32.94453,0 57.65289,10.48239 24.70835,10.4823 41.18062,28.45201 16.84627,17.96972 25.08293,42.30378 8.61066,23.95958 8.61066,51.28854 0,30.32393 -9.35962,55.03229 -9.35962,24.33406 -26.95457,41.92939 -17.22094,17.22104 -41.92939,26.95457 -24.33397,9.35924 -54.28352,9.35924 l -99.2079,0 z M 805.8198,646.52874 q 0,-17.59533 -4.86681,-31.82138 -4.49243,-14.60035 -13.47729,-25.08274 -8.98485,-10.4823 -22.08785,-16.09789 -13.1029,-5.61548 -29.57516,-5.61548 l -37.81126,0 0,157.98384 37.81126,0 q 16.84665,0 29.94955,-5.98997 13.1029,-5.98987 21.71346,-16.47217 8.98486,-10.85678 13.47729,-25.08274 4.86681,-14.60044 4.86681,-31.82147 z"/>
    <path style="opacity:1;fill:#fecb02;fill-opacity:1;fill-rule:evenodd;stroke:none;stroke-width:1;stroke-linecap:round;stroke-linejoin:round;stroke-miterlimit:4;stroke-dasharray:none;stroke-dashoffset:0;stroke-opacity:1" d="m 188.25931,357.79046 383.3209,0 0,586.31476 -383.3209,0 z" id="rect5175" inkscape:connector-curvature="0"/>
    <path style="opacity:1;fill:#85bb2f;fill-opacity:1;fill-rule:evenodd;stroke:none;stroke-width:1;stroke-linecap:round;stroke-linejoin:round;stroke-miterlimit:4;stroke-dasharray:none;stroke-dashoffset:0;stroke-opacity:1" d="m 206.86512,357.79046 -363.03008,0 0,586.31476 363.03008,0 z" id="rect5177" inkscape:connector-curvature="0"/>
    <path inkscape:connector-curvature="0" id="path5595" style="font-style:normal;font-variant:normal;font-weight:800;font-stretch:normal;font-size:medium;line-height:89.99999762%;font-family:Raleway;-inkscape-font-specification:'Raleway Ultra-Bold';letter-spacing:0px;word-spacing:0px;fill:#ffffff;fill-opacity:0.44606413;stroke:none;stroke-width:1px;stroke-linecap:butt;stroke-linejoin:miter;stroke-opacity:1" d="m 293.24562,642.41079 q 0,-23.95968 8.98486,-47.54488 8.98486,-23.95968 26.20589,-42.67816 17.22095,-18.71848 41.9293,-30.32394 24.70845,-11.60536 56.15544,-11.60536 37.43697,0 64.76592,16.09789 27.70334,16.09788 41.18062,41.92929 l -47.17059,32.94454 q -4.49242,-10.4824 -11.60545,-17.22104 -6.73864,-7.11303 -14.97473,-11.23107 -8.23609,-4.49243 -16.84665,-5.98987 -8.61047,-1.87183 -16.84656,-1.87183 -17.59542,0 -30.69832,7.11303 -13.1029,7.11302 -21.71347,18.34409 -8.61047,11.23107 -12.72851,25.45713 -4.11804,14.22595 -4.11804,28.82639 0,15.7235 4.86681,30.32394 4.86681,14.60034 13.85167,25.83141 9.35924,11.23117 22.08775,17.96981 13.1029,6.36426 29.20078,6.36426 8.23619,0 16.84666,-1.87183 8.98485,-2.24622 16.84665,-6.36435 8.23609,-4.49243 14.97473,-11.23107 6.73864,-7.11303 10.85668,-17.22095 l 50.16548,29.57517 q -5.98987,14.60044 -17.96971,26.20589 -11.60546,11.60536 -26.95457,19.46716 -15.34911,7.8618 -32.57015,11.97984 -17.22094,4.11804 -33.69321,4.11804 -28.8264,0 -53.16046,-11.60545 -23.95959,-11.97984 -41.55501,-31.447 -17.22094,-19.46725 -26.95457,-44.1756 -9.35924,-24.70836 -9.35924,-50.16548 z"/>
    <path inkscape:connector-curvature="0" id="path5592" style="font-style:normal;font-variant:normal;font-weight:800;font-stretch:normal;font-size:medium;line-height:89.99999762%;font-family:Raleway;-inkscape-font-specification:'Raleway Ultra-Bold';letter-spacing:0px;word-spacing:0px;fill:#ffffff;fill-opacity:0.44606413;stroke:none;stroke-width:1px;stroke-linecap:butt;stroke-linejoin:miter;stroke-opacity:1" d="m 154.55231,720.90218 q 0,17.22104 -7.11303,29.94956 -7.11303,12.72861 -19.46725,21.33908 -12.35413,8.23618 -28.8264,12.72861 -16.472267,4.11804 -34.816364,4.11804 l -129.531833,0 0,-265.80221 147.87593,0 q 13.851668,0 25.082737,5.98987 11.23107,5.98987 19.09287,15.7235 7.8617,9.35924 11.97984,21.71346 4.49243,11.97984 4.49243,24.70836 0,19.09286 -9.73363,35.93942 -9.35924,16.84665 -28.45211,25.45712 22.83653,6.73865 35.93952,23.95968 13.47729,17.22095 13.47729,44.17551 z M 92.032603,708.54805 q 0,-12.35422 -7.113026,-20.96469 -7.113027,-8.61047 -17.969713,-8.61047 l -70.7557882,0 0,58.02718 68.1351902,0 q 11.979839,0 19.841541,-7.8617 7.861796,-7.8618 7.861796,-20.59032 z m -95.8385272,-132.9011 0,55.03229 60.2733932,0 q 10.108011,0 17.969807,-6.73864 7.861702,-6.73865 7.861702,-20.9647 0,-13.1029 -7.113027,-20.21592 -6.738642,-7.11303 -16.472268,-7.11303 l -62.5196072,0 z"/>
    <path style="opacity:1;fill:#0039ff;fill-opacity:0.62973764;fill-rule:evenodd;stroke:#ffffff;stroke-width:61.03178787;stroke-linecap:round;stroke-linejoin:round;stroke-miterlimit:4;stroke-dasharray:none;stroke-dashoffset:0;stroke-opacity:1" d="m 7.725967,281.61579 39.326398,0 c 108.699035,0 196.207645,87.50861 196.207645,196.20765 l 0,343.94054 c 0,108.69904 -87.50861,196.20762 -196.207645,196.20762 l -39.326398,0 c -108.699137,0 -196.207737,-87.50858 -196.207737,-196.20762 l 0,-343.94054 c 0,-108.69904 87.5086,-196.20765 196.207737,-196.20765 z" id="rect5187" inkscape:connector-curvature="0"/>
    <path inkscape:connector-curvature="0" id="path5588" style="font-style:normal;font-variant:normal;font-weight:800;font-stretch:normal;font-size:medium;line-height:89.99999762%;font-family:Raleway;-inkscape-font-specification:'Raleway Ultra-Bold';letter-spacing:0px;word-spacing:0px;fill:#ffffff;fill-opacity:0.44606413;stroke:none;stroke-width:1px;stroke-linecap:butt;stroke-linejoin:miter;stroke-opacity:1" d="m -384.71226,514.00202 55.40668,0 96.96168,265.80221 -62.89409,0 -20.59031,-59.52472 -82.73563,0 -20.21592,59.52472 -62.89399,0 96.96158,-265.80221 z m 58.77605,163.97381 -31.07271,-93.9667 -31.82138,93.9667 62.89409,0 z"/>
    <path style="opacity:1;fill:#e63e11;fill-opacity:1;fill-rule:evenodd;stroke:none;stroke-width:1;stroke-linecap:round;stroke-linejoin:round;stroke-miterlimit:4;stroke-dasharray:none;stroke-dashoffset:0;stroke-opacity:1" d="m 1069.5559,357.79046 90.6471,0 c 75.4498,0 136.1917,60.74132 136.1917,136.1912 l 0,313.93236 c 0,75.44988 -60.7419,136.1912 -136.1917,136.1912 l -90.6471,0 c -75.44982,0 -136.19172,-60.74132 -136.19172,-136.1912 l 0,-313.93236 c 0,-75.44988 60.7419,-136.1912 136.19172,-136.1912 z" id="rect5193" inkscape:connector-curvature="0"/>
    <path inkscape:connector-curvature="0" id="path5584" style="font-style:normal;font-variant:normal;font-weight:800;font-stretch:normal;font-size:medium;line-height:89.99999762%;font-family:Raleway;-inkscape-font-specification:'Raleway Ultra-Bold';letter-spacing:0px;word-spacing:0px;fill:#ffffff;fill-opacity:0.44606413;stroke:none;stroke-width:1px;stroke-linecap:butt;stroke-linejoin:miter;stroke-opacity:1" d="m 1188.7072,725.89509 0,53.90914 -186.8108,0 0,-265.80221 183.441,0 0,53.90923 -122.0444,0 0,51.66292 104.824,0 0,49.79109 -104.824,0 0,56.52983 125.4142,0 z"/>
    <path style="opacity:1;fill:#85bb2f;fill-opacity:1;fill-rule:evenodd;stroke:none;stroke-width:15.94488144;stroke-linecap:round;stroke-linejoin:round;stroke-miterlimit:4;stroke-dasharray:none;stroke-dashoffset:0;stroke-opacity:1" d="m 7.725967,281.61579 39.326398,0 c 108.699035,0 196.207645,87.50861 196.207645,196.20765 l 0,343.94054 c 0,108.69904 -87.50861,196.20762 -196.207645,196.20762 l -39.326398,0 c -108.699137,0 -196.207737,-87.50858 -196.207737,-196.20762 l 0,-343.94054 c 0,-108.69904 87.5086,-196.20765 196.207737,-196.20765 z" id="rect5199" inkscape:connector-curvature="0"/>
    <path inkscape:connector-curvature="0" id="path5580" style="font-style:normal;font-variant:normal;font-weight:800;font-stretch:normal;font-size:medium;line-height:89.99999762%;font-family:Raleway;-inkscape-font-specification:'Raleway Ultra-Bold';letter-spacing:0px;word-spacing:0px;fill:#ffffff;fill-opacity:1;stroke:none;stroke-width:1px;stroke-linecap:butt;stroke-linejoin:miter;stroke-opacity:1" d="m 173.43942,742.3607 q 0,22.70443 -8.60228,39.48599 -8.60229,16.78146 -23.54305,28.13368 -14.94084,10.85869 -34.86194,16.78156 -19.921105,5.42934 -42.10593,5.42934 l -156.652085,0 0,-350.43803 178.83691,0 q 16.751775,0 30.334405,7.8972 13.58254,7.8972 23.09033,20.73021 9.5077,12.33928 14.48805,28.62731 5.43305,15.7943 5.43305,32.57586 0,25.17238 -11.77161,47.38319 -11.31881,22.2109 -34.40905,33.56311 27.61787,8.88427 43.46414,31.5887 16.29906,22.70444 16.29906,58.24188 z M 97.829859,726.07267 q 0,-16.28793 -8.602287,-27.64014 -8.602287,-11.35222 -21.732023,-11.35222 l -85.570161,0 0,76.50413 82.400832,0 q 14.488047,0 23.995843,-10.36515 9.507796,-10.36506 9.507796,-27.14662 z m -115.904471,-175.21896 0,72.55548 72.893037,0 q 12.224322,0 21.732118,-8.88436 9.507795,-8.88427 9.507795,-27.64015 0,-17.27509 -8.602286,-26.65299 -8.14958,-9.37798 -19.921196,-9.37798 l -75.609468,0 z"/>
  </g>
</svg>
